<?xml version="1.0" ?><!DOCTYPE svg  PUBLIC '-//W3C//DTD SVG 1.1//EN'  'http://www.w3.org/Graphics/SVG/1.1/DTD/svg11.dtd'><svg enable-background="new 0 0 128 128" height="128px" id="Layer_1" version="1.1" viewBox="0 0 128 128" width="128px" xml:space="preserve" xmlns="http://www.w3.org/2000/svg" xmlns:xlink="http://www.w3.org/1999/xlink"><g><g><path d="M63.885,1.717c14.254,0,28.508-0.051,42.762,0.016c11.671,0.054,19.586,7.284,19.684,19.011    c0.24,28.883,0.182,57.771-0.109,86.654c-0.118,11.661-8.016,18.816-19.845,18.843c-28.128,0.064-56.256,0.077-84.384,0.039    c-12.33-0.016-20.395-7.96-20.427-20.266C1.492,78.077,1.512,50.139,1.602,22.201C1.643,9.373,9.378,1.808,22.263,1.771    c13.874-0.04,27.748-0.009,41.621-0.009C63.885,1.747,63.885,1.732,63.885,1.717z M104.193,93.403    c-0.552-28.197-20.744-56.027-48.191-65.188c-7.805-2.605-16.258-3.488-24.496-4.492c-4.208-0.513-7.324,2-7.588,6.674    c-0.263,4.662,2.49,6.913,6.771,7.635c1.118,0.189,2.275,0.144,3.414,0.2C58.434,39.44,79.45,55.25,86.813,78.503    c1.867,5.897,2.41,12.254,3.167,18.447c0.594,4.866,3.231,7.471,7.815,7.182c4.422-0.279,6.592-3.348,6.405-7.877    C104.16,95.306,104.193,94.354,104.193,93.403z M73.316,94.702c-0.592-21.02-19.791-39.938-40.8-40.202    c-5.173-0.065-8.445,2.603-8.642,7.046c-0.199,4.507,2.522,7.057,8.071,7.564c15.644,1.428,24.962,10.632,26.886,26.555    c0.721,5.966,3.394,8.919,7.78,8.597C70.942,103.944,73.474,100.333,73.316,94.702z M42.793,98.006    c-0.015-7.306-5.667-12.932-12.957-12.897c-7.144,0.034-13.123,5.889-13.193,12.919c-0.071,7.139,6.364,13.519,13.472,13.357    C37.205,111.224,42.808,105.312,42.793,98.006z" fill="#333333"/></g></g></svg>